<svg width="73" height="124" viewBox="0 0 73 124" fill="none" xmlns="http://www.w3.org/2000/svg">
<path d="M63.1336 64.3666C62.4622 65.8522 61.8447 67.3108 61.2811 68.7422C60.7715 70.1465 60.3893 71.2334 60.1346 72.0031C59.8129 72.9752 59.5315 73.8933 59.2905 74.7573C59.0495 75.6214 58.842 76.3841 58.6681 77.0456L57.2706 76.5832C57.9254 73.6539 58.2779 71.2987 58.328 69.5176C58.3915 67.696 57.9363 66.2196 56.9624 65.0883C55.9885 63.957 54.2256 62.9692 51.6737 62.1247L47.8459 60.8579C46.4687 60.4021 45.3753 60.1751 44.5658 60.1769C43.8101 60.1515 43.1902 60.4632 42.7058 61.1119C42.2349 61.72 41.7515 62.7735 41.2555 64.2722L31.2822 94.4088C30.7997 95.8671 30.5795 97.0076 30.6218 97.8306C30.7045 98.6669 31.1512 99.3541 31.962 99.892C32.7727 100.43 34.0152 101.021 35.6897 101.665L35.2875 102.88C34.2612 102.451 32.9379 101.968 31.3176 101.432C29.7108 100.855 28.077 100.292 26.4162 99.7421C24.8365 99.2193 23.3513 98.7503 21.9607 98.335C20.5835 97.8793 19.4562 97.5511 18.5787 97.3506L18.9809 96.1355C20.3849 96.5102 21.4714 96.69 22.2405 96.6749C23.05 96.6731 23.6969 96.3479 24.1813 95.6992C24.6656 95.0505 25.149 93.9971 25.6316 92.5388L35.6049 62.4022C36.1009 60.9035 36.3413 59.7696 36.3261 59.0006C36.3244 58.191 35.9992 57.5441 35.3505 57.0598C34.7557 56.5484 33.7764 56.0445 32.4126 55.5482L32.8148 54.333C34.3001 54.8695 35.8664 55.4328 37.5138 56.0229C39.1745 56.5725 40.8083 57.1357 42.4152 57.7124C44.0354 58.2486 45.5341 58.7446 46.9114 59.2003C48.3291 59.6695 49.4835 60.0516 50.3746 60.3465C52.2379 60.9631 54.3442 61.6601 56.6936 62.4376C59.0969 63.188 61.2436 63.831 63.1336 64.3666ZM46.6382 82.6373C46.6382 82.6373 46.5711 82.8398 46.4371 83.2449C46.303 83.6499 46.236 83.8524 46.236 83.8524L34.0842 79.831C34.0842 79.831 34.1512 79.6284 34.2852 79.2234C34.4193 78.8183 34.4863 78.6158 34.4863 78.6158L46.6382 82.6373ZM50.4468 74.9991C49.5207 77.2543 48.8565 78.9895 48.4544 80.2047C48.0927 81.4333 47.7444 82.5539 47.4092 83.5666C47.0741 84.5792 46.7257 85.6998 46.3641 86.9284C46.0024 88.157 45.5206 89.9526 44.9185 92.315L43.5211 91.8526C43.788 90.5027 44.001 89.18 44.1601 87.8844C44.3732 86.5617 44.2222 85.3882 43.7073 84.3639C43.2463 83.3125 42.1246 82.4918 40.3424 81.902L40.7445 80.6868C42.0812 81.1292 43.181 81.201 44.0439 80.9023C44.9607 80.5765 45.7218 80.0419 46.3274 79.2986C46.9329 78.5552 47.4439 77.758 47.8603 76.9071C48.2902 76.0157 48.6865 75.2255 49.0493 74.5366L50.4468 74.9991Z" fill="white"/>
<path d="M19.008 23.688V24.968C17.5573 25.0107 16.448 25.1813 15.68 25.48C14.9547 25.736 14.464 26.248 14.208 27.016C13.952 27.7413 13.824 28.8933 13.824 30.472V62.216C13.824 63.752 13.952 64.904 14.208 65.672C14.464 66.44 14.9547 66.952 15.68 67.208C16.448 67.4213 17.5573 67.528 19.008 67.528H23.68C25.6853 67.528 27.3067 67.3147 28.544 66.888C29.824 66.4613 30.8267 65.8 31.552 64.904C32.32 63.9653 32.896 62.728 33.28 61.192C33.664 59.656 33.9627 57.7787 34.176 55.56H35.648C35.52 56.8827 35.456 58.632 35.456 60.808C35.456 61.6187 35.4773 62.792 35.52 64.328C35.6053 65.8213 35.7333 67.3787 35.904 69C33.728 68.9147 31.2747 68.872 28.544 68.872C25.8133 68.8293 23.3813 68.808 21.248 68.808C20.3093 68.808 19.0933 68.808 17.6 68.808C16.1493 68.808 14.5707 68.8293 12.864 68.872C11.1573 68.872 9.42933 68.8933 7.68 68.936C5.93067 68.936 4.26667 68.9573 2.688 69V67.72C4.13867 67.6347 5.22667 67.464 5.952 67.208C6.72 66.952 7.232 66.44 7.488 65.672C7.744 64.904 7.872 63.752 7.872 62.216V30.472C7.872 28.8933 7.744 27.7413 7.488 27.016C7.232 26.248 6.72 25.736 5.952 25.48C5.22667 25.1813 4.13867 25.0107 2.688 24.968V23.688C3.584 23.7307 4.75733 23.7733 6.208 23.816C7.65867 23.8587 9.216 23.88 10.88 23.88C12.3733 23.88 13.8453 23.8587 15.296 23.816C16.7893 23.7733 18.0267 23.7307 19.008 23.688Z" fill="white"/>
</svg>
