<svg width="961" height="177" viewBox="0 0 961 177" fill="none" xmlns="http://www.w3.org/2000/svg">
<path d="M1.15878 1.82568C27.8674 7.54896 51.1652 10.4973 68.0026 10.9743C80.1503 11.3184 123.14 13.3879 185.72 14.3417C219.8 14.8612 255.267 19.169 297.151 19.6459C337.37 20.1039 366.292 23.0134 372.073 27.7972C375.39 30.5417 374.039 38.3044 373.085 43.1749C372.131 48.0455 370.224 50.9071 367.81 52.8582C358.082 60.7221 335.653 62.5271 318.685 64.9263C303.819 67.0283 284.548 68.3082 270.023 75.0143C261.993 78.7217 261.308 93.2825 262.739 106.752C264.916 127.254 296.804 135.716 316.647 142.48C335.547 148.922 365.194 149.243 406.644 154.042C438.445 157.723 467.346 160.806 528.264 167.512C565.941 171.659 633.783 174.218 674.872 175.229C728.353 176.546 763.077 172.368 799.18 171.414C837.387 170.404 867.282 151.209 879.841 146.367C885.608 144.445 891.418 141.555 897.184 138.664C900.089 137.681 902.951 137.681 911.68 134.791" stroke="white" stroke-width="2" stroke-linecap="round"/>
<path d="M900.118 114.557C910.64 114.557 933.764 112.649 949.2 106.868C952.942 105.466 956.888 105.885 958.854 109.224C959.866 128.981 956.975 137.652 954.576 143.419C953.131 146.324 951.223 149.185 946.367 155.024" stroke="white" stroke-width="2" stroke-linecap="round"/>
</svg>
