<svg width="347" height="584" viewBox="0 0 347 584" fill="none" xmlns="http://www.w3.org/2000/svg">
<path d="M184.684 5.23559C194.739 3.57238 243.048 0.195538 273.679 2.28716C288.002 3.26522 304.688 8.56203 322.807 17.3821C330.064 20.9149 335.861 26.2022 340.473 32.9055C344.834 39.2456 345.966 48.0257 345.55 56.8332C344.774 73.2726 328.376 92.5294 319.128 104.726C305.993 122.049 283.117 129.473 261.608 141.279C245.753 149.982 225.912 157.244 163.516 179.029C133.787 189.409 104.245 204.217 78.9188 218.972C59.5312 230.267 39.4804 248.721 23.453 266.84C8.53968 283.699 1.57918 310.058 1.13818 371.66C0.925953 401.305 14.9857 422.653 20.8574 434.018C27.7713 447.401 35.146 458.79 43.1092 464.7C57.1418 475.113 78.7424 495.734 138.568 520.884C164.978 529.301 203.232 539.28 224.186 544.837C245.14 550.393 247.635 551.225 250.205 552.082" stroke="black" stroke-width="2" stroke-linecap="round"/>
<path d="M250.205 521.841C255.22 526.856 263.612 536.911 271.172 547.004C280.094 558.915 287.98 563.825 290.097 566.761C296.454 575.577 266.233 571.385 251.1 572.658C245.215 573.905 240.15 576.425 235.123 579.361C232.59 580.634 230.095 581.465 225.005 582.322" stroke="black" stroke-width="2" stroke-linecap="round"/>
</svg>
