<svg width="923" height="165" viewBox="0 0 923 165" fill="none" xmlns="http://www.w3.org/2000/svg">
<path d="M888.189 5.54045C890.865 1.94586 900.757 0.135045 908.405 1.47288C914.7 2.57394 917 10.9188 919.703 17.6486C923.224 26.418 919.73 35.2432 917.041 40.1891C911.1 51.1143 899.054 54.1891 888.23 59.1215C882.911 61.5453 842.622 62.2972 784.081 61.8513C753 61.6145 742.297 57.8107 722.054 56.4459C688.406 54.1772 637.811 52.4053 614.851 51.0405C607.06 50.5773 574.081 48.7837 526.351 48.3377C505.337 48.1414 475.838 46.081 433.527 45.635C417.076 45.4617 410.838 44.2972 385.324 43.8377C359.811 43.3783 315.216 43.3783 283.77 44.7161C213.198 47.7186 195.486 53.2702 178.338 54.635C165.114 55.6875 153.108 64.081 139.595 66.3377C124.249 68.9005 115.27 75.8107 104.446 82.9864C93.6867 90.1189 71.2162 99.1621 53.1081 108.216C38.6756 117.216 30.5405 127.135 27.8513 132.527C26.054 135.243 23.3783 137.919 15.2162 146.081" stroke="black" stroke-width="2" stroke-linecap="round"/>
<line x1="0.497194" y1="117.947" x2="5.49719" y2="164.947" stroke="black"/>
<line x1="4.77639" y1="164.553" x2="70.7764" y2="131.553" stroke="black"/>
</svg>
